<svg width="34" height="39" viewBox="0 0 34 39" fill="none" xmlns="http://www.w3.org/2000/svg">
<path d="M14.9016 37.9941C10.2797 33.1078 0 21.2651 0 14.6131C0 6.54241 7.61104 0 17 0C26.3854 0 34 6.54241 34 14.6131C34 21.2651 23.6406 33.1078 19.0984 37.9941C18.0094 39.1586 15.9906 39.1586 14.9016 37.9941ZM17 19.4841C20.1255 19.4841 22.6667 17.2998 22.6667 14.6131C22.6667 11.9264 20.1255 9.74207 17 9.74207C13.8745 9.74207 11.3333 11.9264 11.3333 14.6131C11.3333 17.2998 13.8745 19.4841 17 19.4841Z" fill="white"/>
</svg>
